<?xml version="1.0" encoding="utf-8"?>
<!-- Generator: Adobe Illustrator 15.0.0, SVG Export Plug-In . SVG Version: 6.00 Build 0)  -->
<!DOCTYPE svg PUBLIC "-//W3C//DTD SVG 1.1//EN" "http://www.w3.org/Graphics/SVG/1.1/DTD/svg11.dtd">
<svg version="1.1"
	 id="svg3358" xmlns:svg="http://www.w3.org/2000/svg" xmlns:rdf="http://www.w3.org/1999/02/22-rdf-syntax-ns#" xmlns:cc="http://creativecommons.org/ns#" xmlns:dc="http://purl.org/dc/elements/1.1/"
	 xmlns="http://www.w3.org/2000/svg" xmlns:xlink="http://www.w3.org/1999/xlink" x="0px" y="0px" width="800px" height="450px"
	 viewBox="0 0 800 450" style="enable-background:new 0 0 800 450;" xml:space="preserve">
<path id="path268" style="fill:#C4122E;" d="M271,418.844h-32.635V289.512H271V418.844z"/>
<g id="g278" transform="translate(134.9958,727.2001)">
	<path id="path280" style="fill:#C4122E;" d="M399.148-400.628c-1.334-0.683-11.847-6.905-27.456-6.905
		c-21.099,0-35.736,14.689-35.736,34.495c0,19.218,14.008,34.527,35.736,34.527c15.341,0,26.019-6.089,27.456-6.864v34.712
		c-4.094,1.147-15.248,4.601-29.74,4.601c-36.708,0-68.93-25.306-68.93-66.976c0-38.62,29.151-66.944,68.93-66.944
		c15.299,0,26.649,3.732,29.74,4.642V-400.628z"/>
</g>
<g id="g282" transform="translate(102.0426,727.2001)">
	<path id="path284" style="fill:#C4122E;" d="M91.455-400.628c-1.312-0.683-11.805-6.905-27.414-6.905
		c-21.14,0-35.768,14.689-35.768,34.495c0,19.218,14.018,34.527,35.768,34.527c15.341,0,26.009-6.089,27.414-6.864v34.712
		c-4.052,1.147-15.186,4.601-29.761,4.601c-36.688,0-68.867-25.306-68.867-66.976c0-38.62,29.151-66.944,68.867-66.944
		c15.361,0,26.69,3.732,29.761,4.642V-400.628z"/>
</g>
<g id="g286" transform="translate(144.9274,727.8212)">
	<path id="path288" style="fill:#C4122E;" d="M491.881-407.671c-19.361,0-33.74,15.237-33.74,34.01
		c0,18.814,14.379,34.041,33.74,34.041c19.342,0,33.762-15.227,33.762-34.041C525.643-392.434,511.223-407.671,491.881-407.671
		 M560.221-373.661c0,36.997-28.562,66.976-68.34,66.976c-39.777,0-68.298-29.979-68.298-66.976
		c0-36.935,28.521-66.944,68.298-66.944C531.66-440.606,560.221-410.596,560.221-373.661"/>
</g>
<g id="g290" transform="translate(121.5124,727.9413)">
	<path id="path292" style="fill:#C4122E;" d="M273.25-409.031c-0.485-0.155-14.224-3.949-25.512-3.949
		c-13.077,0-20.189,4.384-20.189,10.596c0,7.877,9.594,10.627,14.958,12.322l9.004,2.863c21.182,6.74,30.836,21.243,30.836,36.997
		c0,32.49-28.572,43.406-53.547,43.406c-17.356,0-33.616-3.194-35.219-3.535v-29.761c2.874,0.724,16.561,4.807,30.815,4.807
		c16.239,0,23.703-4.745,23.703-12.074c0-6.554-6.461-10.337-14.555-12.88c-1.975-0.662-4.941-1.592-6.968-2.254
		c-18.173-5.747-33.327-16.426-33.327-37.834c0-24.189,18.111-40.43,48.192-40.43c15.889,0,30.836,3.856,31.808,4.114V-409.031z"/>
</g>
<g id="g294" transform="translate(89.154,744.2304)">
	<path id="path296" style="fill:#15495D;" d="M-28.889-593.706c0-8.91-7.278-16.136-16.199-16.136s-16.209,7.226-16.209,16.136
		v33.948c0,8.962,7.288,16.198,16.209,16.198s16.199-7.236,16.199-16.198V-593.706z"/>
</g>
<g id="g298" transform="translate(97.7633,748.5409)">
	<path id="path300" style="fill:#15495D;" d="M51.498-642.575c0-8.91-7.277-16.157-16.198-16.157
		c-8.932,0-16.209,7.247-16.209,16.157v78.512c0,8.963,7.277,16.188,16.209,16.188c8.921,0,16.198-7.226,16.198-16.188V-642.575z"/>
</g>
<g id="g302" transform="translate(106.3727,754.4384)">
	<path id="path304" style="fill:#15495D;" d="M131.886-709.437c0-8.911-7.277-16.147-16.198-16.147
		c-8.932,0-16.209,7.236-16.209,16.147v171.733c0,8.962,7.277,16.198,16.209,16.198c8.921,0,16.198-7.236,16.198-16.198V-709.437z"
		/>
</g>
<g id="g306" transform="translate(114.9821,748.5409)">
	<path id="path308" style="fill:#15495D;" d="M212.275-642.575c0-8.91-7.277-16.157-16.199-16.157
		c-8.931,0-16.209,7.247-16.209,16.157v78.512c0,8.963,7.278,16.188,16.209,16.188c8.922,0,16.199-7.226,16.199-16.188V-642.575z"/>
</g>
<g id="g310" transform="translate(123.5817,744.2304)">
	<path id="path312" style="fill:#15495D;" d="M292.572-593.706c0-8.91-7.227-16.136-16.105-16.136
		c-8.922,0-16.199,7.226-16.199,16.136v33.948c0,8.962,7.277,16.198,16.199,16.198c8.879,0,16.105-7.236,16.105-16.198V-593.706z"/>
</g>
<g id="g314" transform="translate(132.195,748.5409)">
	<path id="path316" style="fill:#15495D;" d="M372.996-642.575c0-8.91-7.226-16.157-16.146-16.157
		c-8.911,0-16.157,7.247-16.157,16.157v78.512c0,8.963,7.246,16.188,16.157,16.188c8.921,0,16.146-7.226,16.146-16.188V-642.575z"/>
</g>
<g id="g318" transform="translate(140.8102,754.4384)">
	<path id="path320" style="fill:#15495D;" d="M453.438-709.437c0-8.911-7.226-16.147-16.146-16.147
		c-8.932,0-16.157,7.236-16.157,16.147v171.733c0,8.962,7.226,16.198,16.157,16.198c8.921,0,16.146-7.236,16.146-16.198V-709.437z"
		/>
</g>
<g id="g322" transform="translate(149.4235,748.5409)">
	<path id="path324" style="fill:#15495D;" d="M533.863-642.575c0-8.91-7.226-16.157-16.354-16.157
		c-8.921,0-16.147,7.247-16.147,16.157v78.512c0,8.963,7.226,16.188,16.147,16.188c9.128,0,16.354-7.226,16.354-16.188V-642.575z"/>
</g>
<g id="g326" transform="translate(158.0192,744.2304)">
	<path id="path328" style="fill:#15495D;" d="M614.124-593.706c0-8.91-7.246-16.136-16.157-16.136
		c-8.921,0-16.167,7.226-16.167,16.136v33.948c0,8.962,7.246,16.198,16.167,16.198c8.911,0,16.157-7.236,16.157-16.198V-593.706z"/>
</g>
<g id="g330" transform="translate(156.2126,719.9218)">
	<path id="path332" style="fill:#C4122E;" d="M597.254-318.112v2.026h-5.768v14.999h-2.367v-14.999h-5.8v-2.026H597.254z"/>
</g>
<g id="g334" transform="translate(156.3297,719.9218)">
	<path id="path336" style="fill:#C4122E;" d="M598.348-318.112h3.711l5.097,13.966h0.082l4.932-13.966h3.639v17.025h-2.43v-13.955
		h-0.083l-5.168,13.955h-2.243l-5.045-13.955h-0.113v13.955h-2.378V-318.112z"/>
</g>
</svg>
